<mxfile host="app.diagrams.net" modified="2021-09-12T03:01:09.049Z" agent="5.0 (Windows NT 10.0; Win64; x64) AppleWebKit/537.36 (KHTML, like Gecko) Chrome/93.0.4577.63 Safari/537.36" etag="mGY3KIFOpX8ILAxSskx5" version="15.1.4" type="github">
  <diagram id="kNPmPy-5ZmkpLBKasq0R" name="第 1 页">
    <mxGraphModel dx="976" dy="587" grid="1" gridSize="5" guides="1" tooltips="1" connect="1" arrows="1" fold="1" page="1" pageScale="1" pageWidth="413" pageHeight="583" math="0" shadow="0">
      <root>
        <mxCell id="0" />
        <mxCell id="1" parent="0" />
        <mxCell id="sRXdv2kpabmHocbOsF83-6" value="" style="edgeStyle=orthogonalEdgeStyle;rounded=0;orthogonalLoop=1;jettySize=auto;html=1;" edge="1" parent="1" source="sRXdv2kpabmHocbOsF83-2" target="sRXdv2kpabmHocbOsF83-3">
          <mxGeometry relative="1" as="geometry">
            <mxPoint x="240" y="190" as="targetPoint" />
            <Array as="points">
              <mxPoint x="160" y="135" />
              <mxPoint x="160" y="135" />
            </Array>
          </mxGeometry>
        </mxCell>
        <mxCell id="sRXdv2kpabmHocbOsF83-7" value="put()" style="edgeLabel;html=1;align=center;verticalAlign=middle;resizable=0;points=[];fontFamily=Verdana;fontSize=15;" vertex="1" connectable="0" parent="sRXdv2kpabmHocbOsF83-6">
          <mxGeometry x="0.1309" y="-2" relative="1" as="geometry">
            <mxPoint as="offset" />
          </mxGeometry>
        </mxCell>
        <mxCell id="sRXdv2kpabmHocbOsF83-2" value="Thread1" style="shape=umlLifeline;perimeter=lifelinePerimeter;whiteSpace=wrap;html=1;container=1;collapsible=0;recursiveResize=0;outlineConnect=0;" vertex="1" parent="1">
          <mxGeometry x="50" y="40" width="100" height="300" as="geometry" />
        </mxCell>
        <mxCell id="sRXdv2kpabmHocbOsF83-9" value="" style="edgeStyle=orthogonalEdgeStyle;rounded=0;orthogonalLoop=1;jettySize=auto;html=1;fontFamily=Verdana;fontSize=15;" edge="1" parent="1" source="sRXdv2kpabmHocbOsF83-3">
          <mxGeometry relative="1" as="geometry">
            <mxPoint x="278.5" y="190" as="sourcePoint" />
            <mxPoint x="449" y="190" as="targetPoint" />
          </mxGeometry>
        </mxCell>
        <mxCell id="sRXdv2kpabmHocbOsF83-10" value="notFull.await()" style="edgeLabel;html=1;align=center;verticalAlign=middle;resizable=0;points=[];fontSize=15;fontFamily=Verdana;" vertex="1" connectable="0" parent="sRXdv2kpabmHocbOsF83-9">
          <mxGeometry x="-0.1512" y="-4" relative="1" as="geometry">
            <mxPoint as="offset" />
          </mxGeometry>
        </mxCell>
        <mxCell id="sRXdv2kpabmHocbOsF83-3" value="ArrayBlockingQueue" style="shape=umlLifeline;perimeter=lifelinePerimeter;whiteSpace=wrap;html=1;container=1;collapsible=0;recursiveResize=0;outlineConnect=0;" vertex="1" parent="1">
          <mxGeometry x="200" y="40" width="130" height="300" as="geometry" />
        </mxCell>
        <mxCell id="sRXdv2kpabmHocbOsF83-14" value="" style="edgeStyle=orthogonalEdgeStyle;rounded=0;orthogonalLoop=1;jettySize=auto;html=1;fontFamily=Verdana;fontSize=15;" edge="1" parent="1" source="sRXdv2kpabmHocbOsF83-4" target="sRXdv2kpabmHocbOsF83-4">
          <mxGeometry relative="1" as="geometry">
            <mxPoint x="612.5" y="195" as="targetPoint" />
            <Array as="points">
              <mxPoint x="613" y="230" />
              <mxPoint x="613" y="310" />
            </Array>
          </mxGeometry>
        </mxCell>
        <mxCell id="sRXdv2kpabmHocbOsF83-15" value="addConditionWaiter()" style="edgeLabel;html=1;align=center;verticalAlign=middle;resizable=0;points=[];fontSize=15;fontFamily=Verdana;" vertex="1" connectable="0" parent="sRXdv2kpabmHocbOsF83-14">
          <mxGeometry x="-0.5065" y="1" relative="1" as="geometry">
            <mxPoint x="68" y="31" as="offset" />
          </mxGeometry>
        </mxCell>
        <mxCell id="sRXdv2kpabmHocbOsF83-20" value="" style="edgeStyle=orthogonalEdgeStyle;rounded=0;orthogonalLoop=1;jettySize=auto;html=1;fontFamily=Verdana;fontSize=15;" edge="1" parent="1" source="sRXdv2kpabmHocbOsF83-4" target="sRXdv2kpabmHocbOsF83-4">
          <mxGeometry relative="1" as="geometry">
            <mxPoint x="653" y="285" as="targetPoint" />
            <Array as="points">
              <mxPoint x="653" y="340" />
              <mxPoint x="653" y="430" />
            </Array>
          </mxGeometry>
        </mxCell>
        <mxCell id="sRXdv2kpabmHocbOsF83-21" value="fullyRelease（）" style="edgeLabel;html=1;align=center;verticalAlign=middle;resizable=0;points=[];fontSize=15;fontFamily=Verdana;" vertex="1" connectable="0" parent="sRXdv2kpabmHocbOsF83-20">
          <mxGeometry x="-0.3793" y="-3" relative="1" as="geometry">
            <mxPoint x="47" y="37" as="offset" />
          </mxGeometry>
        </mxCell>
        <mxCell id="sRXdv2kpabmHocbOsF83-4" value="AQS.ConditionObject" style="shape=umlLifeline;perimeter=lifelinePerimeter;whiteSpace=wrap;html=1;container=1;collapsible=0;recursiveResize=0;outlineConnect=0;" vertex="1" parent="1">
          <mxGeometry x="385" y="45" width="125" height="420" as="geometry" />
        </mxCell>
        <mxCell id="sRXdv2kpabmHocbOsF83-22" value="释放锁，park当前线程，当前线程需要在同步&lt;br&gt;队列中等待前驱节点的唤醒，&lt;br&gt;参与竞争锁，重新获取锁之后才能执行逻辑" style="text;html=1;align=center;verticalAlign=middle;resizable=0;points=[];autosize=1;strokeColor=none;fillColor=none;fontSize=15;fontFamily=Verdana;" vertex="1" parent="1">
          <mxGeometry x="475" y="445" width="315" height="60" as="geometry" />
        </mxCell>
        <mxCell id="sRXdv2kpabmHocbOsF83-27" value="" style="edgeStyle=orthogonalEdgeStyle;rounded=0;orthogonalLoop=1;jettySize=auto;html=1;fontFamily=Verdana;fontSize=15;" edge="1" parent="1" source="sRXdv2kpabmHocbOsF83-23">
          <mxGeometry relative="1" as="geometry">
            <mxPoint x="310" y="710" as="targetPoint" />
            <Array as="points">
              <mxPoint x="155" y="710" />
              <mxPoint x="155" y="710" />
            </Array>
          </mxGeometry>
        </mxCell>
        <mxCell id="sRXdv2kpabmHocbOsF83-28" value="poll()" style="edgeLabel;html=1;align=center;verticalAlign=middle;resizable=0;points=[];fontSize=15;fontFamily=Verdana;" vertex="1" connectable="0" parent="sRXdv2kpabmHocbOsF83-27">
          <mxGeometry x="-0.1683" y="1" relative="1" as="geometry">
            <mxPoint as="offset" />
          </mxGeometry>
        </mxCell>
        <mxCell id="sRXdv2kpabmHocbOsF83-23" value="Thread2" style="shape=umlLifeline;perimeter=lifelinePerimeter;whiteSpace=wrap;html=1;container=1;collapsible=0;recursiveResize=0;outlineConnect=0;fontFamily=Verdana;fontSize=15;" vertex="1" parent="1">
          <mxGeometry x="65" y="560" width="100" height="445" as="geometry" />
        </mxCell>
        <mxCell id="sRXdv2kpabmHocbOsF83-30" value="dequeue()" style="edgeStyle=orthogonalEdgeStyle;rounded=0;orthogonalLoop=1;jettySize=auto;html=1;fontFamily=Verdana;fontSize=15;" edge="1" parent="1" source="sRXdv2kpabmHocbOsF83-24" target="sRXdv2kpabmHocbOsF83-24">
          <mxGeometry relative="1" as="geometry">
            <mxPoint x="475" y="710" as="targetPoint" />
            <Array as="points">
              <mxPoint x="380" y="750" />
              <mxPoint x="380" y="795" />
            </Array>
          </mxGeometry>
        </mxCell>
        <mxCell id="sRXdv2kpabmHocbOsF83-24" value="ArrayBlockingQueue" style="shape=umlLifeline;perimeter=lifelinePerimeter;whiteSpace=wrap;html=1;container=1;collapsible=0;recursiveResize=0;outlineConnect=0;" vertex="1" parent="1">
          <mxGeometry x="240" y="560" width="130" height="450" as="geometry" />
        </mxCell>
        <mxCell id="sRXdv2kpabmHocbOsF83-38" value="transferForSignal()" style="edgeStyle=orthogonalEdgeStyle;rounded=0;orthogonalLoop=1;jettySize=auto;html=1;fontFamily=Verdana;fontSize=15;" edge="1" parent="1" source="sRXdv2kpabmHocbOsF83-25" target="sRXdv2kpabmHocbOsF83-25">
          <mxGeometry relative="1" as="geometry">
            <mxPoint x="687.5" y="822.5" as="targetPoint" />
            <Array as="points">
              <mxPoint x="660" y="910" />
              <mxPoint x="660" y="975" />
            </Array>
          </mxGeometry>
        </mxCell>
        <mxCell id="sRXdv2kpabmHocbOsF83-25" value="AQS.ConditionObject" style="shape=umlLifeline;perimeter=lifelinePerimeter;whiteSpace=wrap;html=1;container=1;collapsible=0;recursiveResize=0;outlineConnect=0;" vertex="1" parent="1">
          <mxGeometry x="460" y="560" width="125" height="525" as="geometry" />
        </mxCell>
        <mxCell id="sRXdv2kpabmHocbOsF83-34" value="notFull.signal()" style="html=1;verticalAlign=bottom;endArrow=block;fontFamily=Verdana;fontSize=15;" edge="1" parent="1" source="sRXdv2kpabmHocbOsF83-24" target="sRXdv2kpabmHocbOsF83-25">
          <mxGeometry width="80" relative="1" as="geometry">
            <mxPoint x="370" y="850" as="sourcePoint" />
            <mxPoint x="450" y="850" as="targetPoint" />
            <Array as="points">
              <mxPoint x="480" y="880" />
            </Array>
          </mxGeometry>
        </mxCell>
        <mxCell id="sRXdv2kpabmHocbOsF83-39" value="把condition队列的第一个节点转移到同步队列，&lt;br&gt;等待前驱节点唤醒，参与竞争锁" style="text;html=1;align=center;verticalAlign=middle;resizable=0;points=[];autosize=1;strokeColor=none;fillColor=none;fontSize=15;fontFamily=Verdana;" vertex="1" parent="1">
          <mxGeometry x="560" y="1005" width="335" height="45" as="geometry" />
        </mxCell>
      </root>
    </mxGraphModel>
  </diagram>
</mxfile>
